<svg xmlns="http://www.w3.org/2000/svg" xmlns:xlink="http://www.w3.org/1999/xlink" width="341" height="72" viewBox="0 0 341 72">
  <defs>
    <filter id="Rectangle_12" x="0" y="0" width="341" height="72" filterUnits="userSpaceOnUse">
      <feOffset dy="3" input="SourceAlpha"/>
      <feGaussianBlur stdDeviation="3" result="blur"/>
      <feFlood flood-opacity="0.161"/>
      <feComposite operator="in" in2="blur"/>
      <feComposite in="SourceGraphic"/>
    </filter>
  </defs>
  <g id="search_bar" data-name="search bar" transform="translate(9 6)">
    <g transform="matrix(1, 0, 0, 1, -9, -6)" filter="url(#Rectangle_12)">
      <g id="Rectangle_12-2" data-name="Rectangle 12" transform="translate(9 6)" fill="#fff" stroke="#ddd" stroke-width="1">
        <rect width="323" height="54" rx="2" stroke="none"/>
        <rect x="0.5" y="0.5" width="322" height="53" rx="1.5" fill="none"/>
      </g>
    </g>
    <g id="Icon_awesome-search" data-name="Icon awesome-search" transform="translate(17 9)">
      <path id="Icon_awesome-search-2" data-name="Icon awesome-search" d="M35.508,31.127l-7.01-7.01a1.686,1.686,0,0,0-1.2-.492H26.156a14.618,14.618,0,1,0-2.531,2.531V27.3a1.686,1.686,0,0,0,.492,1.2l7.01,7.01a1.681,1.681,0,0,0,2.384,0l1.99-1.99a1.7,1.7,0,0,0,.007-2.391Zm-20.883-7.5a9,9,0,1,1,9-9A8.995,8.995,0,0,1,14.625,23.625Z" fill="#767676"/>
    </g>
  </g>
</svg>
